<?xml version="1.0" encoding="utf-8"?>
<!-- Generator: Adobe Illustrator 25.4.1, SVG Export Plug-In . SVG Version: 6.00 Build 0)  -->
<svg version="1.1" id="Capa_1" xmlns="http://www.w3.org/2000/svg" xmlns:xlink="http://www.w3.org/1999/xlink" x="0px" y="0px"
	 viewBox="0 0 1247.2 793.7" style="enable-background:new 0 0 1247.2 793.7;" xml:space="preserve">
<style type="text/css">
	.st0{fill:#01A774;stroke:#1D1D1B;stroke-miterlimit:10;}
	.st1{enable-background:new    ;}
	.st2{fill:#01A774;}
</style>
<rect x="49.2" y="119.7" class="st0" width="1151.4" height="18.1"/>
<rect x="49.2" y="629.9" class="st0" width="1151.4" height="18.1"/>
<g class="st1">
	<path class="st2" d="M193.9,534.3c55.3,0,97.9-9.6,127.9-29L193.9,216.7v-4.7c32.4,0,60.8,3.9,85.3,11.6
		c24.5,7.7,44.5,18.8,59.9,33.2c15.4,14.4,27,31.5,34.7,51.4c7.7,19.8,11.6,42.3,11.6,67.4c0,13.7-0.9,26.5-2.7,38.3
		c-1.8,11.8-4.8,23.4-9,34.7c-4.2,11.3-9.6,21.4-16.2,30.5c-6.6,9-14.9,17.3-25,24.9c-10,7.6-21.6,13.9-34.7,19
		c-13.1,5.1-28.4,9.1-45.9,11.9s-36.9,4.2-58,4.2H57.1V212.1h121.4v322.2H193.9z"/>
	<path class="st2" d="M534.7,538.9H413.3V212.1h121.4V538.9z"/>
	<path class="st2" d="M699.8,538.9H578.4V212.1h155.5c21.9,0,41.2,1.8,57.9,5.3c16.7,3.5,31.2,9,43.8,16.6
		c12.5,7.6,22.1,17.7,28.6,30.5c6.5,12.8,9.8,28,9.8,45.8c0,66.9-46.8,100.4-140.5,100.4h-33.6V538.9z M699.8,216.7v189.1h33.6
		c34.2,0,60.6-4.1,79.1-12.4l-56-126.8c-8.4-19-16-32.1-22.9-39.2c-6.9-7.2-16-10.7-27.3-10.7H699.8z"/>
	<path class="st2" d="M1021,538.9H899.6V212.1h155.5c21.9,0,41.2,1.8,57.9,5.3c16.7,3.5,31.2,9,43.8,16.6
		c12.5,7.6,22.1,17.7,28.6,30.5c6.5,12.8,9.8,28,9.8,45.8c0,66.9-46.8,100.4-140.5,100.4H1021V538.9z M1021,216.7v189.1h33.6
		c34.2,0,60.6-4.1,79.1-12.4l-56-126.8c-8.4-19-16-32.1-22.9-39.2c-6.9-7.2-16-10.7-27.3-10.7H1021z"/>
</g>
</svg>
